<?xml version="1.0" standalone="no"?>
<!DOCTYPE svg PUBLIC "-//W3C//DTD SVG 20010904//EN"
 "http://www.w3.org/TR/2001/REC-SVG-20010904/DTD/svg10.dtd">
<svg version="1.0" xmlns="http://www.w3.org/2000/svg"
 width="991.000000pt" height="1280.000000pt" viewBox="0 0 991.000000 1280.000000"
 preserveAspectRatio="xMidYMid meet">
<metadata>
Created by potrace 1.15, written by Peter Selinger 2001-2017
</metadata>
<g transform="translate(0.000000,1280.000000) scale(0.100000,-0.100000)"
fill="#000000" stroke="none">
<path d="M103 12781 c-26 -12 -52 -35 -70 -62 l-28 -43 0 -6276 0 -6276 28
-43 c18 -27 44 -50 70 -62 41 -18 148 -19 4852 -19 4704 0 4811 1 4852 19 26
12 52 35 70 62 l28 43 0 6276 0 6276 -28 43 c-18 27 -44 50 -70 62 -41 18
-148 19 -4852 19 -4704 0 -4811 -1 -4852 -19z m1047 -608 l0 -528 -525 3 -525
2 0 499 c0 489 0 499 21 525 l20 26 505 0 504 0 0 -527z m8639 501 c21 -26 21
-36 21 -525 l0 -499 -4280 0 -4280 0 0 525 0 525 4259 0 4260 0 20 -26z
m-8639 -1349 l0 -225 -525 0 -525 0 0 225 0 225 525 0 525 0 0 -225z m8660 0
l0 -225 -4280 0 -4280 0 0 225 0 225 4280 0 4280 0 0 -225z m-8660 -550 l0
-225 -525 0 -525 0 0 225 0 225 525 0 525 0 0 -225z m8660 0 l0 -225 -4280 0
-4280 0 0 225 0 225 4280 0 4280 0 0 -225z m-8660 -540 l0 -225 -525 0 -525 0
0 225 0 225 525 0 525 0 0 -225z m8660 0 l0 -225 -4280 0 -4280 0 0 225 0 225
4280 0 4280 0 0 -225z m-8660 -550 l0 -225 -525 0 -525 0 0 225 0 225 525 0
525 0 0 -225z m8660 0 l0 -225 -4280 0 -4280 0 0 225 0 225 4280 0 4280 0 0
-225z m-8660 -542 l0 -228 -525 0 -525 0 0 222 0 223 523 3 c287 1 523 3 525
5 1 1 2 -100 2 -225z m8660 -5 l0 -223 -4277 2 -4278 3 -3 220 -2 220 4280 0
4280 0 0 -222z m-8660 -543 l0 -225 -525 0 -525 0 0 225 0 225 525 0 525 0 0
-225z m8660 0 l0 -225 -4280 0 -4280 0 0 225 0 225 4280 0 4280 0 0 -225z
m-8660 -550 l0 -225 -525 0 -525 0 0 225 0 225 525 0 525 0 0 -225z m8660 0
l0 -225 -4280 0 -4280 0 0 225 0 225 4280 0 4280 0 0 -225z m-8660 -540 l0
-225 -525 0 -525 0 0 225 0 225 525 0 525 0 0 -225z m8660 0 l0 -225 -4280 0
-4280 0 0 225 0 225 4280 0 4280 0 0 -225z m-8660 -550 l0 -225 -525 0 -525 0
0 225 0 225 525 0 525 0 0 -225z m8660 0 l0 -225 -4280 0 -4280 0 0 225 0 225
4280 0 4280 0 0 -225z m-8660 -542 l0 -228 -525 3 -525 2 0 225 0 225 525 0
525 0 0 -227z m8660 2 l0 -225 -4280 0 -4280 0 0 218 c0 120 3 222 7 225 3 4
1929 7 4280 7 l4273 0 0 -225z m-8660 -550 l0 -225 -525 0 -525 0 0 225 0 225
525 0 525 0 0 -225z m8660 0 l0 -225 -4280 0 -4280 0 0 225 0 225 4280 0 4280
0 0 -225z m-8660 -550 l0 -225 -525 0 -525 0 0 225 0 225 525 0 525 0 0 -225z
m8660 0 l0 -225 -4280 0 -4280 0 0 225 0 225 4280 0 4280 0 0 -225z m-8660
-540 l0 -225 -525 0 -525 0 0 225 0 225 525 0 525 0 0 -225z m8660 0 l0 -225
-4280 0 -4280 0 0 225 0 225 4280 0 4280 0 0 -225z m-8660 -550 l0 -225 -525
0 -525 0 0 225 0 225 525 0 525 0 0 -225z m8660 0 l0 -225 -4280 0 -4280 0 0
225 0 225 4280 0 4280 0 0 -225z m-8660 -540 l0 -225 -525 0 -525 0 0 225 0
225 525 0 525 0 0 -225z m8660 0 l0 -225 -4280 0 -4280 0 0 225 0 225 4280 0
4280 0 0 -225z m-8660 -550 l0 -225 -525 0 -525 0 0 225 0 225 525 0 525 0 0
-225z m8660 0 l0 -225 -4280 0 -4280 0 0 225 0 225 4280 0 4280 0 0 -225z
m-8660 -550 l0 -225 -525 0 -525 0 0 225 0 225 525 0 525 0 0 -225z m8660 0
l0 -225 -4280 0 -4280 0 0 225 0 225 4280 0 4280 0 0 -225z m-8660 -540 l0
-225 -525 0 -525 0 0 225 0 225 525 0 525 0 0 -225z m8660 0 l0 -225 -4280 0
-4280 0 0 225 0 225 4280 0 4280 0 0 -225z m-8660 -550 l0 -225 -525 0 -525 0
0 225 0 225 525 0 525 0 0 -225z m8660 0 l0 -225 -4280 0 -4280 0 0 225 0 225
4280 0 4280 0 0 -225z m-8660 -540 l0 -225 -525 0 -525 0 0 225 0 225 525 0
525 0 0 -225z m8660 0 l0 -225 -4280 0 -4280 0 0 218 c0 120 3 222 7 225 3 4
1929 7 4280 7 l4273 0 0 -225z m-8660 -590 l0 -265 -504 0 -505 0 -20 26 c-20
25 -21 39 -21 265 l0 239 525 0 525 0 0 -265z m8660 26 c0 -226 -1 -240 -21
-265 l-20 -26 -4260 0 -4259 0 0 265 0 265 4280 0 4280 0 0 -239z"/>
<path d="M549 11977 c-89 -59 -88 -172 3 -240 32 -24 107 -25 147 -1 37 22 71
82 71 125 0 106 -132 176 -221 116z"/>
<path d="M564 6531 c-32 -14 -72 -68 -80 -106 -8 -45 10 -95 47 -131 27 -26
37 -29 94 -29 54 0 67 4 90 25 73 68 73 152 1 219 -28 27 -113 39 -152 22z"/>
<path d="M592 1079 c-68 -14 -121 -95 -108 -164 24 -128 197 -156 266 -43 26
42 25 91 -1 137 -33 59 -91 84 -157 70z"/>
</g>
</svg>
